ply
format ascii 1.0
comment ledeatintin (c)depinfoiutlille
element vertex 10
property float x
property float y
property float z
element face 16
property list uchar int vertex_indices
end_header
0.100   0.100   0.100
0.100   0.100   4.100
0.100   4.100   0.100
0.100   4.100   4.100
4.100   0.100   0.100
4.100   0.100   4.100
4.100   4.100   0.100
4.100   4.100   3.100
4.100   2.600   4.100
2.100   4.100   4.100
3 0 1 3
3 0 3 2
3 4 6 7
3 4 7 8
3 4 8 5
3 0 4 5
3 0 5 1
3 2 3 9
3 2 9 7
3 2 7 6
3 0 2 6
3 0 6 4
3 1 5 8
3 1 8 9
3 1 9 3
3 7 9 8
